<?xml version="1.0" encoding="UTF-8" standalone="no"?>
<!-- Created with Inkscape (http://www.inkscape.org/) -->

<svg
   version="1.1"
   id="svg678"
   width="63.763062"
   height="60"
   viewBox="0 0 63.763062 60.000001"
   sodipodi:docname="freva_owl.svg"
   inkscape:version="1.2.2 (b0a8486541, 2022-12-01)"
   xmlns:inkscape="http://www.inkscape.org/namespaces/inkscape"
   xmlns:sodipodi="http://sodipodi.sourceforge.net/DTD/sodipodi-0.dtd"
   xmlns="http://www.w3.org/2000/svg"
   xmlns:svg="http://www.w3.org/2000/svg">
  <defs
     id="defs682" />
  <sodipodi:namedview
     id="namedview680"
     pagecolor="#ffffff"
     bordercolor="#000000"
     borderopacity="0.25"
     inkscape:showpageshadow="2"
     inkscape:pageopacity="0.0"
     inkscape:pagecheckerboard="0"
     inkscape:deskcolor="#d1d1d1"
     showgrid="false"
     inkscape:zoom="3.2362664"
     inkscape:cx="-71.37855"
     inkscape:cy="-27.037329"
     inkscape:window-width="1920"
     inkscape:window-height="1011"
     inkscape:window-x="0"
     inkscape:window-y="0"
     inkscape:window-maximized="1"
     inkscape:current-layer="g684" />
  <g
     inkscape:groupmode="layer"
     inkscape:label="Image"
     id="g684"
     transform="translate(-111.47368,-104.61793)">
    <g
       id="g855"
       transform="matrix(0.35995379,0,0,0.35995379,110.8869,103.9884)">
      <path
         style="fill:#7ec9e7;stroke-width:1.40364"
         d="m 105.73714,143.86508 c 16.19244,-17.69845 27.0771,-31.57454 38.96159,-49.669493 5.71513,-8.701672 10.64685,-15.661958 10.95937,-15.467299 4.45465,2.77466 7.94313,14.510919 4.31319,14.510919 -0.61925,0 -0.73883,0.637065 -0.26578,1.415699 0.47306,0.778636 0.15993,1.4157 -0.69584,1.4157 -0.85578,0 -1.20946,0.570311 -0.78597,1.267356 0.42349,0.697047 -0.25544,1.667638 -1.50873,2.156874 -1.25328,0.489231 -1.9348,1.239354 -1.51449,1.666934 0.42033,0.42758 -1.52537,3.04701 -4.32377,5.82095 -2.79839,2.77396 -3.83547,4.18876 -2.30461,3.14406 1.53083,-1.04471 0.62517,0.4618 -2.01261,3.34779 -5.06481,5.54139 -7.17577,6.92634 -4.22172,2.76977 0.96841,-1.36261 -1.30337,0.69893 -5.04837,4.58124 -3.74503,3.88228 -7.33817,7.06761 -7.98481,7.07848 -0.64661,0.011 -2.75068,1.93099 -4.67568,4.26689 -1.925,2.3359 -3.06763,3.29149 -2.53917,2.12354 0.52847,-1.16794 -0.6553,-0.33607 -2.63061,1.84858 -1.97531,2.18466 -3.6123,3.45878 -3.63776,2.83139 -0.0255,-0.62739 -1.24406,0.32063 -2.70795,2.10673 -1.46392,1.78608 -3.1653,3.3006 -3.78082,3.36557 -2.93757,0.31007 -4.49657,1.62273 -3.67141,3.09129 0.50102,0.89172 0.38206,1.1323 -0.2644,0.53463 -0.64646,-0.59768 -3.38133,0.99499 -6.077484,3.53925 -2.69616,2.54424 0.191861,-0.94181 6.417834,-7.74685 z m -32.781629,5.54315 c -1.671269,-1.80969 -2.689873,-3.64517 -2.263563,-4.07884 0.426313,-0.43366 -1.916414,-3.18654 -5.206062,-6.11748 -3.289645,-2.93097 -5.041789,-4.87424 -3.893655,-4.3184 1.148133,0.55584 -0.104376,-1.02821 -2.783357,-3.52008 -2.678978,-2.4919 -3.931489,-4.0821 -2.783355,-3.53382 1.148135,0.54829 0.208752,-0.71176 -2.087516,-2.80013 -2.296268,-2.08835 -3.23565,-3.36004 -2.087516,-2.82593 1.148134,0.53408 0.705073,-0.27252 -0.984579,-1.79245 -1.689652,-1.51993 -2.695961,-3.14612 -2.236246,-3.61377 0.459715,-0.46766 -0.189575,-1.25057 -1.442865,-1.73979 -1.253293,-0.48923 -1.929489,-1.46433 -1.502658,-2.16687 0.426829,-0.70255 -0.199426,-1.65816 -1.391678,-2.12356 -1.192253,-0.46539 -1.821241,-1.41649 -1.397752,-2.11354 0.423486,-0.69704 0.06981,-1.26737 -0.785966,-1.26737 -0.85577,0 -1.166162,-0.64155 -0.689764,-1.42569 0.476399,-0.78415 -0.1093,-1.80648 -1.301552,-2.27189 -1.192252,-0.46541 -1.82124,-1.41651 -1.397752,-2.11355 0.423488,-0.69706 0.06981,-1.26736 -0.785964,-1.26736 -0.855771,0 -1.251021,-0.501898 -0.878335,-1.115322 0.372683,-0.613425 -1.373299,-5.020129 -3.879963,-9.792676 l -4.557572,-8.677358 5.701694,-1.622466 c 12.693285,-3.611985 38.464645,-3.468274 45.256718,0.252367 15.206101,8.329781 16.002278,27.656485 2.569153,62.364665 -4.716925,12.18748 -4.892715,12.33441 -9.189895,7.68131 z M 73.4806,63.60681 C 72.99011,62.799484 71.666472,58.979514 70.53918,55.117991 67.959109,46.27998 57.081945,33.84655 48.225384,29.611615 34.299829,22.952844 15.413341,22.238901 13.522335,28.299776 c -1.088528,3.488848 -2.463349,2.401664 -2.65712,-2.101202 -0.108021,-2.510228 0.456809,-3.154226 2.329531,-2.656047 1.359667,0.3617 2.472123,0.03462 2.472123,-0.726861 0,-0.761473 1.066388,-2.654988 3.093708,-2.260755 2.610948,0.507732 4.329293,0.419079 3.607298,-0.7693 -0.731807,-1.204529 -0.353326,-0.01733 2.228292,0.641801 2.015038,0.514472 3.595801,0.314542 3.595801,-0.454787 0,-0.755071 1.565636,-1.068398 3.479193,-0.696285 1.913556,0.372115 3.483551,0.12451 3.488875,-0.550242 0.0053,-0.674746 2.973725,-1.366826 6.596449,-1.537953 3.622722,-0.171125 6.793674,-0.942571 7.046559,-1.714323 0.252886,-0.771753 1.972004,-3.449542 4.214452,-2.993309 2.396974,0.487668 4.3997,2.648326 4.3997,1.791198 0,-0.892687 2.970946,-3.579523 6.509831,-3.096667 4.03929,0.551135 4.923723,0.925264 4.257158,-0.171875 -0.674214,-1.1097282 1.667166,-0.366499 6.617695,0.229936 3.851807,0.464065 5.099665,1.867666 6.273836,0.446652 0.43798,-0.530056 8.220839,-2.7641937 18.863668,-2.7641937 10.642836,0 19.547236,1.9830237 19.192456,2.5669987 -0.35481,0.583975 7.17646,0.903665 7.98697,0.903665 0.8106,0 -3.49139,1.098695 -4.87277,1.801446 -16.1538,6.833943 -35.509464,16.043995 -42.014447,33.823347 -2.204164,9.413862 -4.832501,18.75356 -6.750993,15.59579 z"
         id="path867"
         sodipodi:nodetypes="sscssssssssssssssssssssssssssssssssssssssssssscssssssssssssssssssssssssssssccs" />
      <path
         style="fill:#e8af36;stroke-width:1.41046"
         d="M 113.89689,83.28241 C 100.73846,81.033666 92.231575,70.771696 92.229886,57.145196 92.226188,27.325251 131.48659,18.690892 143.73934,45.816957 152.70892,65.674488 135.7138,87.010864 113.89689,83.28241 Z m 2.57808,-24.784236 c 3.40284,-4.971577 2.82289,-6.430082 0.2501,-11.063811 -3.09476,-5.573818 -9.94329,-5.008173 -13.88486,0.0315 -7.095293,9.071998 7.1088,20.566792 13.63476,11.032311 z"
         id="path863"
         sodipodi:nodetypes="ssssssss" />
      <path
         style="fill:#01508b;stroke-width:1.33333"
         d="M 74.822592,160.39475 C 43.587095,132.20357 19.379001,92.015599 6.3142244,46.66369 -2.2045089,17.092513 -2.0088157,16.812406 32.01526,9.8762944 89.520895,-1.8467431 128.61141,-0.88948654 149.77032,12.759904 l 4.66667,3.010418 -10.31675,0.38912 C 138.44603,16.37346 132.64031,15.926049 131.21865,15.1652 118.31379,8.2587278 67.918329,11.412755 22.69278,21.957349 l -11.744209,2.738229 0.859513,4.204039 c 8.944652,43.749949 32.509897,87.204553 64.324275,118.614753 l 9.19419,9.07739 15.888551,-11.59752 c 49.41986,-36.073 65.3951,-56.265368 52.85533,-66.807998 -3.09679,-2.603577 -3.29957,-3.291618 -1.88509,-6.39607 1.14809,-2.856624 1.88889,-5.864124 3.01564,-8.670939 1.58344,-3.49071 3.73,-23.180081 -0.0786,-30.645512 l -2.73957,-5.370066 3.02711,0.132907 c 12.57628,0.552169 16.14728,12.574065 10.40462,35.027599 -2.60622,10.190277 -2.60626,10.280311 -0.005,14.546617 10.38585,17.033621 -8.12635,39.992542 -65.15639,80.807292 -8.314097,5.9504 -15.522427,10.81892 -16.01816,10.81892 -0.495735,0 -4.911156,-3.61902 -9.812048,-8.04224 z"
         id="path859"
         sodipodi:nodetypes="cssscssscsscssccccssccscc" />
      <path
         style="fill:#070807;stroke-width:1.33333"
         d="M 102.03528,88.985966 C 69.209728,72.628305 77.750984,28.804329 115.65027,19.129345 c 19.78839,-5.051608 58.58768,-2.625989 62.0698,3.880422 3.25553,6.082999 -0.588,7.121244 -17.9388,4.845779 -21.13148,-2.771281 -20.5968,-2.847736 -15.72221,2.248109 14.83988,15.51348 14.24952,40.637878 -1.26259,53.732299 -11.19017,9.446093 -27.90272,11.557657 -40.76119,5.150012 z m 27.70857,-8.882312 c 14.44623,-7.380693 19.48267,-27.22923 9.94918,-39.209571 -12.57978,-15.808502 -34.87019,-14.024112 -44.257561,3.542905 -9.09814,17.025765 3.775316,38.666666 23.001521,38.666666 3.00754,0 8.05752,-1.339889 11.30686,-3 z M 103.97697,57.998667 c -4.374342,-4.833596 -0.64583,-13.561679 5.79335,-13.561679 3.66056,0 8,4.649407 8,8.571428 0,6.793929 -9.16146,10.108427 -13.79335,4.990251 z M 41.817235,57.857976 c -3.51617,-6.570022 -0.798774,-12.087654 5.953088,-12.087654 2.273333,0 4.853333,0.72 5.733333,1.6 0.88,0.88 1.6,3.46 1.6,5.733333 0,7.241142 -10.033949,10.831622 -13.286421,4.754321 z"
         id="path857" />
    </g>
  </g>
</svg>
